<svg width="60" height="60" viewBox="0 0 60 60" fill="none" xmlns="http://www.w3.org/2000/svg">
<g filter="url(#filter0_i_233_476)">
<rect width="60" height="60" rx="7" fill="black" fill-opacity="0.01"/>
<path d="M33.875 43.8855H26.125C19.1112 43.8855 16.1146 40.8888 16.1146 33.875V26.125C16.1146 19.1113 19.1112 16.1146 26.125 16.1146H33.875C40.8887 16.1146 43.8854 19.1113 43.8854 26.125V33.875C43.8854 40.8888 40.8887 43.8855 33.875 43.8855ZM26.125 18.0521C20.1704 18.0521 18.0521 20.1705 18.0521 26.125V33.875C18.0521 39.8296 20.1704 41.948 26.125 41.948H33.875C39.8296 41.948 41.9479 39.8296 41.9479 33.875V26.125C41.9479 20.1705 39.8296 18.0521 33.875 18.0521H26.125Z" fill="#A4F5F8"/>
<path d="M26.125 28.3854C24.1617 28.3854 22.5729 26.7967 22.5729 24.8333C22.5729 22.87 24.1617 21.2812 26.125 21.2812C28.0884 21.2812 29.6771 22.87 29.6771 24.8333C29.6771 26.7967 28.0884 28.3854 26.125 28.3854ZM26.125 23.2188C25.2338 23.2188 24.5104 23.9421 24.5104 24.8333C24.5104 25.7246 25.2338 26.4479 26.125 26.4479C27.0163 26.4479 27.7396 25.7246 27.7396 24.8333C27.7396 23.9421 27.0163 23.2188 26.125 23.2188Z" fill="#A4F5F8"/>
<path d="M17.9487 39.9459C17.6387 39.9459 17.3287 39.7909 17.1479 39.5196C16.8508 39.0805 16.9671 38.4734 17.4191 38.1763L23.7871 33.9009C25.1821 32.958 27.1066 33.0742 28.3725 34.1463L28.7987 34.5209C29.4446 35.0763 30.5425 35.0763 31.1754 34.5209L36.5487 29.9096C37.9179 28.7342 40.075 28.7342 41.4571 29.9096L43.5625 31.718C43.9629 32.0667 44.0146 32.6738 43.6658 33.0871C43.3171 33.4876 42.71 33.5392 42.2966 33.1905L40.1912 31.3821C39.5454 30.8267 38.4475 30.8267 37.8016 31.3821L32.4283 35.9934C31.0591 37.1688 28.9021 37.1688 27.52 35.9934L27.0937 35.6188C26.4996 35.1151 25.5179 35.0634 24.8591 35.5155L18.4912 39.7909C18.3233 39.8942 18.1296 39.9459 17.9487 39.9459Z" fill="#A4F5F8"/>
</g>
<defs>
<filter id="filter0_i_233_476" x="0" y="-1" width="62" height="61" filterUnits="userSpaceOnUse" color-interpolation-filters="sRGB">
<feFlood flood-opacity="0" result="BackgroundImageFix"/>
<feBlend mode="normal" in="SourceGraphic" in2="BackgroundImageFix" result="shape"/>
<feColorMatrix in="SourceAlpha" type="matrix" values="0 0 0 0 0 0 0 0 0 0 0 0 0 0 0 0 0 0 127 0" result="hardAlpha"/>
<feOffset dx="2" dy="-1"/>
<feGaussianBlur stdDeviation="3.8"/>
<feComposite in2="hardAlpha" operator="arithmetic" k2="-1" k3="1"/>
<feColorMatrix type="matrix" values="0 0 0 0 0.0196078 0 0 0 0 0.313726 0 0 0 0 0.556863 0 0 0 0.77 0"/>
<feBlend mode="normal" in2="shape" result="effect1_innerShadow_233_476"/>
</filter>
</defs>
</svg>
