<svg width="60" height="60" viewBox="0 0 60 60" fill="none" xmlns="http://www.w3.org/2000/svg">
<g filter="url(#filter0_i_235_600)">
<rect width="60" height="60" rx="7" fill="black" fill-opacity="0.01"/>
<path d="M20.85 43.4375C18.1875 43.4375 16.0125 41.2624 16.0125 38.5999C16.0125 35.9374 18.1875 33.7625 20.85 33.7625C23.5125 33.7625 25.6875 35.9374 25.6875 38.5999C25.6875 41.2624 23.5125 43.4375 20.85 43.4375ZM20.85 35.6375C19.2125 35.6375 17.8875 36.9624 17.8875 38.5999C17.8875 40.2374 19.2125 41.5624 20.85 41.5624C22.4875 41.5624 23.8125 40.2374 23.8125 38.5999C23.8125 36.9624 22.4875 35.6375 20.85 35.6375Z" fill="#A4F5F8"/>
<path d="M24.75 39.5375C24.2375 39.5375 23.8125 39.1125 23.8125 38.6V22.875C23.8125 20.9 25 19.35 26.9 18.8375L34.7 16.7125C36.2875 16.275 37.625 16.4375 38.5625 17.1625C39.5125 17.8875 39.9875 19.1 39.9875 20.7625V36.0125C39.9875 36.525 39.5625 36.95 39.05 36.95C38.5375 36.95 38.1125 36.525 38.1125 36.0125V20.75C38.1125 20.025 37.9875 19.075 37.425 18.65C36.8125 18.175 35.7625 18.3625 35.1875 18.525L27.3875 20.65C26.3 20.95 25.6875 21.7625 25.6875 22.8875V38.6125C25.6875 39.1125 25.2625 39.5375 24.75 39.5375Z" fill="#A4F5F8"/>
<path d="M35.15 40.8375C32.4875 40.8375 30.3125 38.6625 30.3125 36C30.3125 33.3375 32.4875 31.1625 35.15 31.1625C37.8125 31.1625 39.9875 33.3375 39.9875 36C39.9875 38.6625 37.8125 40.8375 35.15 40.8375ZM35.15 33.0375C33.5125 33.0375 32.1875 34.3625 32.1875 36C32.1875 37.6375 33.5125 38.9625 35.15 38.9625C36.7875 38.9625 38.1125 37.6375 38.1125 36C38.1125 34.3625 36.7875 33.0375 35.15 33.0375Z" fill="#A4F5F8"/>
<path d="M24.75 27.8375C24.3375 27.8375 23.9625 27.5625 23.85 27.15C23.7125 26.65 24 26.125 24.5 25.9875L38.8 22.0875C39.3 21.95 39.8125 22.25 39.95 22.75C40.0875 23.25 39.7875 23.7625 39.2875 23.9L25 27.8C24.9125 27.825 24.825 27.8375 24.75 27.8375Z" fill="#A4F5F8"/>
</g>
<defs>
<filter id="filter0_i_235_600" x="0" y="-1" width="62" height="61" filterUnits="userSpaceOnUse" color-interpolation-filters="sRGB">
<feFlood flood-opacity="0" result="BackgroundImageFix"/>
<feBlend mode="normal" in="SourceGraphic" in2="BackgroundImageFix" result="shape"/>
<feColorMatrix in="SourceAlpha" type="matrix" values="0 0 0 0 0 0 0 0 0 0 0 0 0 0 0 0 0 0 127 0" result="hardAlpha"/>
<feOffset dx="2" dy="-1"/>
<feGaussianBlur stdDeviation="3.8"/>
<feComposite in2="hardAlpha" operator="arithmetic" k2="-1" k3="1"/>
<feColorMatrix type="matrix" values="0 0 0 0 0.0196078 0 0 0 0 0.313726 0 0 0 0 0.556863 0 0 0 0.77 0"/>
<feBlend mode="normal" in2="shape" result="effect1_innerShadow_235_600"/>
</filter>
</defs>
</svg>
