<svg width="60" height="60" viewBox="0 0 60 60" fill="none" xmlns="http://www.w3.org/2000/svg">
<g filter="url(#filter0_i_237_377)">
<rect width="60" height="60" rx="7" fill="black" fill-opacity="0.01"/>
<path d="M33.875 43.8855H26.125C19.1113 43.8855 16.1146 40.8888 16.1146 33.875V26.125C16.1146 19.1113 19.1113 16.1146 26.125 16.1146H33.875C40.8888 16.1146 43.8854 19.1113 43.8854 26.125V33.875C43.8854 40.8888 40.8888 43.8855 33.875 43.8855ZM26.125 18.0521C20.1704 18.0521 18.0521 20.1705 18.0521 26.125V33.875C18.0521 39.8296 20.1704 41.948 26.125 41.948H33.875C39.8296 41.948 41.9479 39.8296 41.9479 33.875V26.125C41.9479 20.1705 39.8296 18.0521 33.875 18.0521H26.125Z" fill="#A4F5F8"/>
<path d="M42.245 24.6525H17.755C17.2254 24.6525 16.7863 24.2133 16.7863 23.6837C16.7863 23.1541 17.2125 22.715 17.755 22.715H42.245C42.7746 22.715 43.2138 23.1541 43.2138 23.6837C43.2138 24.2133 42.7875 24.6525 42.245 24.6525Z" fill="#A4F5F8"/>
<path d="M25.505 24.4717C24.9754 24.4717 24.5363 24.0325 24.5363 23.503V17.2255C24.5363 16.6959 24.9754 16.2567 25.505 16.2567C26.0346 16.2567 26.4738 16.6959 26.4738 17.2255V23.503C26.4738 24.0325 26.0346 24.4717 25.505 24.4717Z" fill="#A4F5F8"/>
<path d="M34.495 23.8905C33.9654 23.8905 33.5262 23.4513 33.5262 22.9217V17.2255C33.5262 16.6959 33.9654 16.2567 34.495 16.2567C35.0246 16.2567 35.4637 16.6959 35.4637 17.2255V22.9217C35.4637 23.4642 35.0375 23.8905 34.495 23.8905Z" fill="#A4F5F8"/>
<path d="M28.8246 37.905C28.3596 37.905 27.9204 37.7888 27.52 37.5692C26.6417 37.0525 26.125 36.0192 26.125 34.7146V31.6146C26.125 30.31 26.6417 29.2638 27.5329 28.7471C28.4242 28.2304 29.5867 28.3079 30.7104 28.9667L33.3971 30.5167C34.5208 31.1625 35.1796 32.1313 35.1796 33.1646C35.1796 34.1979 34.5208 35.1667 33.3842 35.8125L30.6975 37.3625C30.0775 37.7242 29.4317 37.905 28.8246 37.905ZM28.8375 30.3488C28.7083 30.3488 28.5921 30.3746 28.5017 30.4263C28.2304 30.5813 28.0625 31.0204 28.0625 31.6146V34.7146C28.0625 35.2958 28.2304 35.735 28.5017 35.9029C28.7729 36.0579 29.2379 35.9804 29.7417 35.6833L32.4283 34.1333C32.9321 33.8363 33.2421 33.4746 33.2421 33.1646C33.2421 32.8546 32.945 32.4929 32.4283 32.1958L29.7417 30.6458C29.4058 30.4521 29.0829 30.3488 28.8375 30.3488Z" fill="#A4F5F8"/>
</g>
<defs>
<filter id="filter0_i_237_377" x="0" y="-1" width="62" height="61" filterUnits="userSpaceOnUse" color-interpolation-filters="sRGB">
<feFlood flood-opacity="0" result="BackgroundImageFix"/>
<feBlend mode="normal" in="SourceGraphic" in2="BackgroundImageFix" result="shape"/>
<feColorMatrix in="SourceAlpha" type="matrix" values="0 0 0 0 0 0 0 0 0 0 0 0 0 0 0 0 0 0 127 0" result="hardAlpha"/>
<feOffset dx="2" dy="-1"/>
<feGaussianBlur stdDeviation="3.8"/>
<feComposite in2="hardAlpha" operator="arithmetic" k2="-1" k3="1"/>
<feColorMatrix type="matrix" values="0 0 0 0 0.0196078 0 0 0 0 0.313726 0 0 0 0 0.556863 0 0 0 0.77 0"/>
<feBlend mode="normal" in2="shape" result="effect1_innerShadow_237_377"/>
</filter>
</defs>
</svg>
