<svg width="60" height="60" viewBox="0 0 60 60" fill="none" xmlns="http://www.w3.org/2000/svg">
<g filter="url(#filter0_i_233_514)">
<rect width="60" height="60" rx="7" fill="black" fill-opacity="0.01"/>
<path d="M33.362 44.0167H25.762C18.884 44.0167 15.9453 41.078 15.9453 34.2V26.6C15.9453 19.722 18.884 16.7833 25.762 16.7833H28.2953C28.8146 16.7833 29.2453 17.214 29.2453 17.7333C29.2453 18.2527 28.8146 18.6833 28.2953 18.6833H25.762C19.9226 18.6833 17.8453 20.7607 17.8453 26.6V34.2C17.8453 40.0393 19.9226 42.1167 25.762 42.1167H33.362C39.2013 42.1167 41.2786 40.0393 41.2786 34.2V31.6667C41.2786 31.1473 41.7093 30.7167 42.2286 30.7167C42.748 30.7167 43.1786 31.1473 43.1786 31.6667V34.2C43.1786 41.078 40.2526 44.0167 33.362 44.0167Z" fill="#A4F5F8"/>
<path d="M30.588 34.5039C30.398 34.5039 30.2207 34.4532 30.056 34.3392C29.79 34.1619 29.638 33.8706 29.638 33.5539C29.638 33.4146 29.6254 33.2626 29.6 33.1106C29.5114 32.4392 29.2074 31.8439 28.7007 31.3246C28.1814 30.8052 27.548 30.4759 26.8514 30.3872C26.75 30.3746 26.5854 30.3619 26.4334 30.3746C26.1167 30.3999 25.8 30.2606 25.61 30.0072C25.42 29.7539 25.3694 29.4119 25.4707 29.1079C25.6227 28.6772 25.8634 28.2719 26.142 27.9552L27.7 26.0046C30.4107 22.6226 35.87 18.5692 39.898 16.9606C40.8227 16.6059 41.798 16.8086 42.4694 17.4799C43.166 18.1766 43.3687 19.1646 43.0014 20.0639C41.3927 24.0792 37.3394 29.5512 33.97 32.2492L31.9814 33.8452C31.5887 34.1239 31.272 34.3139 30.9427 34.4406C30.8287 34.4786 30.702 34.5039 30.588 34.5039ZM27.9787 28.7152C28.7514 28.9686 29.448 29.3992 30.0434 29.9819C30.626 30.5646 31.044 31.2359 31.2847 31.9579L32.7794 30.7546C35.9334 28.2212 39.7334 23.1039 41.2407 19.3419C41.342 19.1012 41.228 18.9239 41.1267 18.8099C41.0634 18.7466 40.886 18.6072 40.5947 18.7212C36.8454 20.2286 31.728 24.0286 29.1947 27.1826L27.9787 28.7152Z" fill="#A4F5F8"/>
<path d="M24.1534 38.95C23.3427 38.95 22.57 38.6333 21.9874 38.0507C21.316 37.3793 20.9867 36.4547 21.1007 35.5047L21.3667 33.022C21.6454 30.4507 23.7354 28.5507 26.3574 28.5C26.56 28.4873 26.8134 28.5 27.054 28.5127C28.2067 28.6647 29.2327 29.1713 30.0434 29.9947C30.854 30.8053 31.348 31.768 31.4874 32.8573C31.5254 33.098 31.538 33.3387 31.538 33.5667C31.538 34.9473 31.006 36.252 30.0307 37.2273C29.2327 38.0253 28.194 38.5193 27.016 38.6713L24.508 38.9373C24.3814 38.95 24.2674 38.95 24.1534 38.95ZM26.56 30.3873C26.522 30.3873 26.4714 30.3873 26.4334 30.3873C24.9767 30.4253 23.444 31.4007 23.254 33.2247L22.988 35.72C22.95 36.0873 23.0767 36.4547 23.33 36.708C23.5834 36.9613 23.938 37.088 24.2927 37.05L26.788 36.784C27.5227 36.6953 28.1814 36.3787 28.6754 35.8847C29.2834 35.264 29.6254 34.4533 29.6254 33.5667C29.6254 33.4273 29.6127 33.2753 29.5874 33.1233C29.4987 32.452 29.1947 31.8567 28.688 31.3373C28.1687 30.818 27.5354 30.4887 26.8387 30.4C26.7754 30.3873 26.674 30.3873 26.56 30.3873Z" fill="#A4F5F8"/>
<path d="M34.4387 31.3246C33.9194 31.3246 33.4887 30.8939 33.4887 30.3746C33.4887 28.2592 31.766 26.5239 29.638 26.5239C29.1187 26.5239 28.688 26.0932 28.688 25.5739C28.688 25.0546 29.1187 24.6239 29.638 24.6239C32.8047 24.6239 35.3887 27.1952 35.3887 30.3746C35.3887 30.8939 34.9707 31.3246 34.4387 31.3246Z" fill="#A4F5F8"/>
</g>
<defs>
<filter id="filter0_i_233_514" x="0" y="-1" width="62" height="61" filterUnits="userSpaceOnUse" color-interpolation-filters="sRGB">
<feFlood flood-opacity="0" result="BackgroundImageFix"/>
<feBlend mode="normal" in="SourceGraphic" in2="BackgroundImageFix" result="shape"/>
<feColorMatrix in="SourceAlpha" type="matrix" values="0 0 0 0 0 0 0 0 0 0 0 0 0 0 0 0 0 0 127 0" result="hardAlpha"/>
<feOffset dx="2" dy="-1"/>
<feGaussianBlur stdDeviation="3.8"/>
<feComposite in2="hardAlpha" operator="arithmetic" k2="-1" k3="1"/>
<feColorMatrix type="matrix" values="0 0 0 0 0.0196078 0 0 0 0 0.313726 0 0 0 0 0.556863 0 0 0 0.77 0"/>
<feBlend mode="normal" in2="shape" result="effect1_innerShadow_233_514"/>
</filter>
</defs>
</svg>
