<svg width="390" height="90" viewBox="0 0 390 90" fill="none" xmlns="http://www.w3.org/2000/svg">
<path d="M0 15C0 6.71573 6.71573 0 15 0H375C383.284 0 390 6.71573 390 15V90H0V15Z" fill="#0A0B11"/>
<path d="M47.3985 46.5099C47.6119 46.5099 47.8166 46.5911 47.9675 46.7355C48.1185 46.8799 48.2032 47.0757 48.2032 47.2799V53.7414C48.2343 54.6346 48.1216 55.2209 47.7043 55.5894C47.3157 55.9315 46.7523 56.0294 46.0223 55.992H30.1142C29.3738 55.9568 28.799 55.6697 28.5322 55.09C28.3552 54.7083 28.2724 54.2573 28.2724 53.7392V47.2788C28.2724 47.0746 28.3572 46.8788 28.5081 46.7344C28.659 46.59 28.8637 46.5088 29.0772 46.5088C29.2906 46.5088 29.4953 46.59 29.6462 46.7344C29.7972 46.8788 29.882 47.0746 29.882 47.2788V53.7392C29.8835 53.9951 29.9103 54.2012 29.9624 54.3574L30.0038 54.4652L30.0004 54.4542C30.0015 54.4399 30.0349 54.4454 30.1521 54.452H46.0637C46.3454 54.4674 46.5247 54.452 46.5879 54.4509L46.5925 54.4498C46.5776 54.3915 46.6063 54.1528 46.5925 53.7656V47.2788C46.5925 47.1776 46.6134 47.0774 46.6539 46.9839C46.6944 46.8904 46.7538 46.8055 46.8287 46.734C46.9035 46.6625 46.9924 46.6058 47.0901 46.5671C47.1879 46.5285 47.2927 46.5087 47.3985 46.5088M38.4953 33.9995C38.7989 33.9995 39.0702 34.1139 39.3254 34.3262L49.2414 43.2792C49.3196 43.3483 49.3827 43.4316 49.427 43.5243C49.4713 43.6169 49.496 43.717 49.4995 43.8188C49.5031 43.9207 49.4856 44.0222 49.4478 44.1174C49.4101 44.2127 49.353 44.2999 49.2799 44.3739C49.2067 44.4479 49.1189 44.5073 49.0216 44.5486C48.9243 44.5899 48.8193 44.6123 48.7129 44.6146C48.6064 44.6168 48.5006 44.5988 48.4015 44.5616C48.3023 44.5244 48.2119 44.4688 48.1354 44.3979L38.4586 35.6594L27.8309 44.421C27.6693 44.5545 27.4589 44.6211 27.246 44.6061C27.0331 44.5912 26.8351 44.4959 26.6956 44.3413C26.5561 44.1866 26.4865 43.9853 26.5022 43.7816C26.5178 43.5779 26.6174 43.3885 26.779 43.255L37.6388 34.3042L37.7377 34.2338C37.9837 34.0864 38.2298 34.0006 38.4965 34.0006" fill="url(#paint0_linear_158_602)"/>
<path d="M145.671 42.6925C145.568 42.6919 145.469 42.73 145.395 42.7985C145.322 42.867 145.28 42.9603 145.278 43.0582V45.7907C145.28 45.8888 145.322 45.9824 145.396 46.0509C145.47 46.1195 145.569 46.1574 145.672 46.1564H154.334C154.437 46.1574 154.537 46.1195 154.611 46.0509C154.684 45.9824 154.727 45.8888 154.728 45.7907V43.0582C154.727 42.9601 154.684 42.8666 154.611 42.798C154.537 42.7295 154.437 42.6915 154.334 42.6925H145.671ZM150.983 34.0007C152.181 34.0551 153.043 34.2799 153.589 34.7568C154.129 35.2287 154.406 35.9118 154.46 36.8161V39.4066C154.458 39.6272 154.363 39.8377 154.197 39.992C154.031 40.1462 153.807 40.2316 153.575 40.2293C153.46 40.2306 153.346 40.2103 153.239 40.1697C153.132 40.1291 153.035 40.0688 152.952 39.9924C152.87 39.916 152.804 39.825 152.759 39.7244C152.714 39.6239 152.69 39.5159 152.688 39.4066L152.69 36.863C152.661 36.3936 152.543 36.102 152.374 35.9538C152.21 35.8105 151.711 35.682 150.94 35.645H133.941C133.243 35.6697 132.789 35.7957 132.57 35.9748C132.401 36.1119 132.273 36.4899 132.272 37.1434L132.268 51.6833C132.333 52.3182 132.48 52.742 132.668 52.9532C132.811 53.1138 133.255 53.2744 133.907 53.3534H150.958C151.756 53.3683 152.227 53.2546 152.385 53.1027C152.561 52.9334 152.688 52.4887 152.688 51.7611V49.2349C152.688 48.7815 153.085 48.4121 153.575 48.4121C154.064 48.4121 154.46 48.7815 154.46 49.2349V51.7611C154.46 52.8729 154.221 53.7043 153.661 54.2441C153.084 54.8 152.166 55.0224 150.94 54.9977L133.802 54.994C132.636 54.8655 131.8 54.5616 131.302 54.002C130.851 53.4955 130.6 52.7728 130.5 51.7623V37.1422C130.503 36.06 130.776 35.246 131.402 34.737C131.977 34.2676 132.806 34.039 133.907 33.9995L150.983 34.0007ZM154.334 41.0471C155.53 41.0471 156.5 41.9476 156.5 43.0582V45.7907C156.5 46.9013 155.53 47.8019 154.334 47.8019H145.672C144.476 47.8019 143.506 46.9001 143.506 45.7907V43.0582C143.506 41.9476 144.476 41.0471 145.672 41.0471H154.334ZM147.838 43.4436C147.24 43.4436 146.755 43.8883 146.755 44.4356C146.755 44.9828 147.24 45.4276 147.838 45.4276C148.436 45.4276 148.921 44.9828 148.921 44.4356C148.921 43.8883 148.436 43.4424 147.838 43.4424" fill="url(#paint1_linear_158_602)"/>
<path d="M251.698 46.2106C252.71 46.2106 253.7 46.3712 254.636 46.6814C254.735 46.7128 254.826 46.7628 254.904 46.8283C254.983 46.8939 255.046 46.9737 255.092 47.0631C255.138 47.1525 255.164 47.2498 255.17 47.3491C255.176 47.4485 255.161 47.548 255.126 47.6417C255.053 47.8317 254.904 47.9864 254.713 48.0724C254.521 48.1585 254.302 48.1689 254.103 48.1015C253.329 47.8463 252.517 47.7162 251.699 47.7165C247.712 47.7165 244.482 50.7492 244.482 54.4914C244.482 54.7202 244.493 54.9472 244.516 55.1723C244.535 55.3725 244.47 55.5718 244.335 55.7262C244.201 55.8807 244.008 55.9778 243.799 55.9962C243.589 56.0175 243.378 55.9584 243.214 55.8318C243.05 55.7052 242.944 55.5215 242.921 55.3208C242.893 55.0452 242.878 54.7684 242.877 54.4914C242.877 49.9187 246.826 46.2106 251.698 46.2106ZM256.466 47.7165C256.677 47.7185 256.88 47.7993 257.03 47.9419C257.181 48.0845 257.267 48.2775 257.271 48.4799V50.9648L259.702 50.9593C259.893 50.9633 260.077 51.0314 260.221 51.1518C260.366 51.2723 260.461 51.4373 260.491 51.6182L260.5 51.7304C260.501 51.8296 260.481 51.9279 260.441 52.0196C260.402 52.1113 260.343 52.1944 260.269 52.2641C260.196 52.3339 260.108 52.3887 260.012 52.4255C259.915 52.4623 259.812 52.4803 259.709 52.4784L257.271 52.4839V55.0909C257.273 55.1901 257.254 55.2887 257.216 55.3809C257.177 55.4731 257.12 55.5569 257.047 55.6275C256.974 55.6981 256.887 55.7539 256.791 55.7918C256.695 55.8296 256.593 55.8486 256.489 55.8477C256.277 55.8457 256.075 55.7649 255.924 55.6223C255.774 55.4798 255.688 55.2868 255.684 55.0843L255.683 52.4872L252.796 52.4949C252.605 52.4908 252.422 52.4227 252.278 52.3025C252.134 52.1823 252.038 52.0176 252.008 51.8371L251.999 51.7238C251.998 51.6247 252.018 51.5265 252.058 51.4349C252.097 51.3433 252.156 51.2602 252.229 51.1905C252.303 51.1208 252.39 51.0659 252.487 51.029C252.583 50.9921 252.686 50.974 252.789 50.9758L255.683 50.9681V48.4722C255.681 48.373 255.7 48.2745 255.738 48.1825C255.777 48.0904 255.834 48.0067 255.907 47.9363C255.98 47.8658 256.067 47.8101 256.163 47.7723C256.259 47.7346 256.362 47.7156 256.466 47.7165ZM246.322 43.0415C246.426 43.0405 246.529 43.0592 246.626 43.0964C246.723 43.1337 246.811 43.1889 246.886 43.2587C246.96 43.3286 247.019 43.4119 247.06 43.5037C247.101 43.5955 247.122 43.6941 247.123 43.7939C247.122 43.8938 247.101 43.9925 247.06 44.0845C247.02 44.1764 246.96 44.2598 246.886 44.3298C246.811 44.3998 246.723 44.455 246.626 44.4924C246.53 44.5297 246.426 44.5484 246.322 44.5474C242.335 44.5474 239.104 47.5801 239.104 51.3223C239.104 51.5504 239.116 51.777 239.139 52.0021C239.158 52.2025 239.093 52.402 238.959 52.5567C238.824 52.7114 238.631 52.8087 238.421 52.8271C238.211 52.8484 238.001 52.7893 237.837 52.6627C237.672 52.5361 237.567 52.3524 237.544 52.1517C237.515 51.8761 237.501 51.5993 237.5 51.3223C237.5 46.7485 241.45 43.0415 246.322 43.0415ZM251.999 37.2621C254.51 37.2621 256.544 39.1728 256.544 41.5279C256.544 43.883 254.508 45.7937 251.999 45.7937C249.49 45.7937 247.456 43.8841 247.456 41.5279C247.456 39.1728 249.49 37.2621 251.999 37.2621ZM251.999 38.768C250.375 38.768 249.059 40.0033 249.059 41.529C249.059 43.0525 250.375 44.2878 251.999 44.2878C253.623 44.2878 254.94 43.0525 254.94 41.5279C254.94 40.0033 253.623 38.768 251.999 38.768ZM246.729 33.9995C248.16 33.9995 249.483 34.6265 250.337 35.6715C250.607 36.0015 250.54 36.4745 250.188 36.7275C250.019 36.8489 249.806 36.9022 249.596 36.8761C249.387 36.85 249.196 36.7466 249.064 36.5878C248.787 36.2493 248.432 35.9758 248.027 35.7883C247.623 35.6007 247.179 35.5039 246.729 35.5054C245.105 35.5054 243.788 36.7407 243.788 38.2653C243.788 39.5985 244.802 40.7348 246.181 40.9779C246.616 41.0549 246.904 41.4476 246.822 41.8568C246.78 42.0549 246.658 42.2291 246.482 42.3415C246.307 42.454 246.092 42.4956 245.885 42.4574C243.751 42.0812 242.184 40.3256 242.184 38.2653C242.184 35.9091 244.219 33.9995 246.729 33.9995Z" fill="url(#paint2_linear_158_602)"/>
<path d="M352.492 45.6286C353.142 45.6286 353.786 45.5006 354.387 45.2519C354.987 45.0031 355.533 44.6385 355.992 44.1789C356.452 43.7193 356.817 43.1737 357.065 42.5732C357.314 41.9727 357.442 41.3291 357.442 40.6791C357.442 40.0291 357.314 39.3855 357.065 38.785C356.817 38.1845 356.452 37.6389 355.992 37.1793C355.533 36.7197 354.987 36.3551 354.387 36.1064C353.786 35.8577 353.142 35.7296 352.492 35.7296C351.18 35.7296 349.92 36.2511 348.992 37.1793C348.064 38.1075 347.542 39.3664 347.542 40.6791C347.542 41.9918 348.064 43.2507 348.992 44.1789C349.92 45.1072 351.18 45.6286 352.492 45.6286ZM352.5 33.9995C353.949 33.999 355.358 34.4753 356.509 35.3549C357.66 36.2345 358.49 37.4684 358.871 38.8664C359.251 40.2644 359.161 41.7486 358.614 43.0902C358.067 44.4318 357.093 45.5561 355.844 46.2896C359.901 47.5105 362.948 50.929 363.494 55.1745C363.546 55.5782 363.246 55.9445 362.823 55.9939C362.402 56.0434 362.017 55.7575 361.965 55.3538C361.371 50.7453 357.379 47.2751 352.538 47.2751C347.671 47.2751 343.628 50.7519 343.035 55.3538C342.983 55.7575 342.598 56.0434 342.177 55.9939C341.754 55.9445 341.454 55.5782 341.506 55.1745C342.051 50.9466 345.115 47.5325 349.178 46.3006C347.925 45.5704 346.947 44.4477 346.396 43.1061C345.845 41.7644 345.751 40.2787 346.129 38.8784C346.508 37.4782 347.336 36.2416 348.488 35.3597C349.64 34.4778 351.05 33.9997 352.5 33.9995Z" fill="url(#paint3_linear_158_602)"/>
<defs>
<linearGradient id="paint0_linear_158_602" x1="38" y1="33.9995" x2="38" y2="55.9995" gradientUnits="userSpaceOnUse">
<stop stop-color="#A4F5F8"/>
<stop offset="0.975962" stop-color="#A4F5F8" stop-opacity="0.16"/>
</linearGradient>
<linearGradient id="paint1_linear_158_602" x1="143.5" y1="33.9995" x2="143.5" y2="54.9995" gradientUnits="userSpaceOnUse">
<stop stop-color="#A4F5F8"/>
<stop offset="0.975962" stop-color="#A4F5F8" stop-opacity="0.16"/>
</linearGradient>
<linearGradient id="paint2_linear_158_602" x1="249" y1="33.9995" x2="249" y2="56.0005" gradientUnits="userSpaceOnUse">
<stop stop-color="#A4F5F8"/>
<stop offset="0.975962" stop-color="#A4F5F8" stop-opacity="0.16"/>
</linearGradient>
<linearGradient id="paint3_linear_158_602" x1="352.5" y1="33.9995" x2="352.5" y2="55.9995" gradientUnits="userSpaceOnUse">
<stop stop-color="#A4F5F8"/>
<stop offset="0.975962" stop-color="#A4F5F8" stop-opacity="0.16"/>
</linearGradient>
</defs>
</svg>
